# xmcd
#
# Track frame offsets: 
#        150
#        15264
#        25819
#        44047
#        55441
#        70059
#        81441
#        95310
#        107953
#        122868
#        135338
#        148554
#        163673
#
# Disc length: 2334 seconds
#
# Revision: 0
# Processed by: cddbd v1.5.2PL0 Copyright (c) Steve Scherf et al.
# Submitted via: ExactAudioCopyFreeDBPlugin 1.0
#
DISCID=b0091c0d
DTITLE=Glen Campbell - 1968 - That Christmas Feeling
DYEAR=1968
DGENRE=country
TTITLE0=Christmas Is for Children
TTITLE1=Old Toy Trains
TTITLE2=Little Altar Boy
TTITLE3=It Must Be Getting Close to Christmas
TTITLE4=Have Yourself a Merry Little Christmas
TTITLE5=Blue Christmas
TTITLE6=The Christmas Song (Merry Christmas to You)
TTITLE7=Pretty Paper
TTITLE8=There's No Place Like Home
TTITLE9=I'll Be Home for Christmas
TTITLE10=Christmas Day
TTITLE11=The Night Before Christmas
TTITLE12=Silent Night
EXTD=
EXTT0=
EXTT1=
EXTT2=
EXTT3=
EXTT4=
EXTT5=
EXTT6=
EXTT7=
EXTT8=
EXTT9=
EXTT10=
EXTT11=
EXTT12=
PLAYORDER=
